<svg width="24" height="24" viewBox="0 0 24 24" fill="none" xmlns="http://www.w3.org/2000/svg">
    <path d="M12 6.25C11.5469 6.25 11.1875 5.89062 11.1875 5.4375C11.1875 4.98438 11.5469 4.625 12 4.625C12.4453 4.625 12.8125 4.98438 12.8125 5.4375C12.8125 5.89062 12.4453 6.25 12 6.25ZM16.8984 8.27344C16.4453 8.27344 16.0859 7.91406 16.0859 7.46094C16.0859 7.00781 16.4453 6.64844 16.8984 6.64844C17.3438 6.64844 17.7031 7.00781 17.7031 7.46094C17.7031 7.91406 17.3438 8.27344 16.8984 8.27344ZM7.10156 8.27344C6.64844 8.27344 6.28906 7.91406 6.28906 7.46094C6.28906 7.00781 6.64844 6.64844 7.10156 6.64844C7.55469 6.64844 7.91406 7.00781 7.91406 7.46094C7.91406 7.91406 7.55469 8.27344 7.10156 8.27344ZM12 16.3359C9.82031 16.3359 8.01562 14.5312 8.01562 12.3594C8.01562 10.1797 9.82031 8.375 12 8.375C14.1719 8.375 15.9766 10.1797 15.9766 12.3594C15.9766 14.5312 14.1719 16.3359 12 16.3359ZM12 15.1484C13.5234 15.1484 14.7891 13.8828 14.7891 12.3594C14.7891 10.8281 13.5234 9.5625 12 9.5625C10.4688 9.5625 9.20312 10.8359 9.20312 12.3594C9.20312 13.8828 10.4688 15.1484 12 15.1484ZM18.9219 13.1719C18.4688 13.1719 18.1094 12.8125 18.1094 12.3594C18.1094 11.9062 18.4688 11.5469 18.9219 11.5469C19.3672 11.5469 19.7266 11.9062 19.7266 12.3594C19.7266 12.8125 19.3672 13.1719 18.9219 13.1719ZM5.07812 13.1719C4.625 13.1719 4.26562 12.8125 4.26562 12.3594C4.26562 11.9062 4.625 11.5469 5.07812 11.5469C5.53125 11.5469 5.89062 11.9062 5.89062 12.3594C5.89062 12.8125 5.53125 13.1719 5.07812 13.1719ZM16.8984 18.0703C16.4453 18.0703 16.0859 17.7109 16.0859 17.2578C16.0859 16.8047 16.4453 16.4453 16.8984 16.4453C17.3438 16.4453 17.7031 16.8047 17.7031 17.2578C17.7031 17.7109 17.3438 18.0703 16.8984 18.0703ZM7.10156 18.0703C6.64844 18.0703 6.28906 17.7109 6.28906 17.2578C6.28906 16.8047 6.64844 16.4453 7.10156 16.4453C7.55469 16.4453 7.91406 16.8047 7.91406 17.2578C7.91406 17.7109 7.55469 18.0703 7.10156 18.0703ZM12 20.0938C11.5469 20.0938 11.1875 19.7344 11.1875 19.2812C11.1875 18.8281 11.5469 18.4688 12 18.4688C12.4453 18.4688 12.8125 18.8281 12.8125 19.2812C12.8125 19.7344 12.4453 20.0938 12 20.0938Z" fill="black"/>
</svg>
