<svg width="24" height="24" viewBox="0 0 24 24" fill="none" xmlns="http://www.w3.org/2000/svg">
    <path d="M12.9922 20.8906C12.6172 21.1094 12.3125 21.2109 12 21.2109C11.6797 21.2109 11.3828 21.1094 11.0078 20.8906L4.89062 17.3438C4.25781 16.9766 4.01562 16.6875 4.01562 16.2578C4.01562 15.8359 4.25781 15.5469 4.89062 15.1797L6.13281 14.4609L4.89062 13.7422C4.25781 13.375 4.01562 13.0938 4.01562 12.6641C4.01562 12.2344 4.25781 11.9531 4.89062 11.5781L6.34375 10.7422L4.89062 9.89844C4.25781 9.53125 4.01562 9.24219 4.01562 8.8125C4.01562 8.39062 4.25781 8.10156 4.89062 7.73438L11.0078 4.1875C11.3828 3.96875 11.6797 3.86719 12 3.86719C12.3125 3.86719 12.6172 3.96875 12.9922 4.1875L19.1016 7.73438C19.7344 8.10156 19.9844 8.39062 19.9844 8.8125C19.9844 9.24219 19.7344 9.53125 19.1016 9.89844L17.6562 10.7422L19.1016 11.5781C19.7344 11.9531 19.9844 12.2344 19.9844 12.6641C19.9844 13.0938 19.7344 13.375 19.1016 13.7422L17.875 14.4609L19.1016 15.1797C19.7344 15.5469 19.9844 15.8359 19.9844 16.2578C19.9844 16.6875 19.7344 16.9766 19.1016 17.3438L12.9922 20.8906ZM12 13.7656C11.6797 13.7656 11.3828 13.6641 11.0078 13.4453L7.625 11.4844L5.70312 12.5859C5.67188 12.6016 5.64844 12.625 5.64844 12.6641C5.64844 12.7031 5.67188 12.7188 5.70312 12.7422L11.6484 16.1406C11.7812 16.2109 11.8906 16.25 12 16.25C12.1094 16.25 12.2188 16.2109 12.3438 16.1406L18.2891 12.7422C18.3281 12.7188 18.3516 12.7031 18.3516 12.6641C18.3516 12.625 18.3281 12.6016 18.2891 12.5859L16.3672 11.4844L12.9922 13.4453C12.6172 13.6641 12.3125 13.7656 12 13.7656ZM11.6484 19.7422C11.7812 19.8125 11.8906 19.8516 12 19.8516C12.1094 19.8516 12.2188 19.8125 12.3438 19.7422L18.2891 16.3359C18.3281 16.3203 18.3516 16.2969 18.3516 16.2578C18.3516 16.2266 18.3281 16.2031 18.2891 16.1875L16.5781 15.2109L12.9922 17.2969C12.6172 17.5156 12.3125 17.6172 12 17.6172C11.6797 17.6172 11.3828 17.5156 11.0078 17.2969L7.41406 15.2109L5.70312 16.1875C5.67188 16.2031 5.64844 16.2266 5.64844 16.2578C5.64844 16.2969 5.67188 16.3203 5.70312 16.3359L11.6484 19.7422Z" fill="black"/>
</svg>
