<svg width="24" height="24" viewBox="0 0 24 24" fill="none" xmlns="http://www.w3.org/2000/svg">
    <path d="M6.00781 18.3594C5.91406 18.2708 5.85156 18.1667 5.82031 18.0469C5.79427 17.9271 5.79688 17.8073 5.82812 17.6875C5.85938 17.5677 5.91927 17.4635 6.00781 17.375L11.0078 12.3672L6.00781 7.36719C5.91927 7.27865 5.85938 7.17448 5.82812 7.05469C5.80208 6.9349 5.80208 6.8151 5.82812 6.69531C5.85938 6.57552 5.91927 6.47135 6.00781 6.38281C6.09635 6.28906 6.20052 6.22917 6.32031 6.20312C6.4401 6.17188 6.5599 6.17188 6.67969 6.20312C6.80469 6.22917 6.91146 6.28906 7 6.38281L12 11.3828L17 6.38281C17.0885 6.28906 17.1927 6.22917 17.3125 6.20312C17.4323 6.17188 17.5521 6.17188 17.6719 6.20312C17.7917 6.22917 17.8984 6.28906 17.9922 6.38281C18.0807 6.47135 18.1406 6.57552 18.1719 6.69531C18.2031 6.8151 18.2031 6.9349 18.1719 7.05469C18.1406 7.17448 18.0807 7.27865 17.9922 7.36719L12.9922 12.3672L17.9922 17.375C18.0807 17.4635 18.138 17.5677 18.1641 17.6875C18.1953 17.8073 18.1953 17.9271 18.1641 18.0469C18.138 18.1667 18.0807 18.2708 17.9922 18.3594C17.9036 18.4531 17.7969 18.513 17.6719 18.5391C17.5521 18.5703 17.4323 18.5703 17.3125 18.5391C17.1927 18.5078 17.0885 18.4479 17 18.3594L12 13.3594L7 18.3594C6.91146 18.4479 6.80729 18.5078 6.6875 18.5391C6.56771 18.5703 6.44792 18.5703 6.32812 18.5391C6.20833 18.5078 6.10156 18.4479 6.00781 18.3594Z" fill="black"/>
</svg>
