<svg width="24" height="24" viewBox="0 0 24 24" fill="none" xmlns="http://www.w3.org/2000/svg">
    <path d="M4.625 16.6562C4.625 16.3958 4.70052 16.1432 4.85156 15.8984C5.0026 15.6536 5.1901 15.4141 5.41406 15.1797C5.64323 14.9453 5.86979 14.7109 6.09375 14.4766C6.26562 14.2995 6.39844 14.0677 6.49219 13.7812C6.59115 13.4948 6.66406 13.1901 6.71094 12.8672C6.75781 12.5443 6.79167 12.2318 6.8125 11.9297C6.82812 10.9036 6.9349 10.0026 7.13281 9.22656C7.33073 8.44531 7.64062 7.79427 8.0625 7.27344C8.48958 6.7526 9.04948 6.36719 9.74219 6.11719C9.8724 5.60677 10.1354 5.17448 10.5312 4.82031C10.9323 4.46615 11.4193 4.28906 11.9922 4.28906C12.5703 4.28906 13.0573 4.46615 13.4531 4.82031C13.8542 5.17448 14.1198 5.60677 14.25 6.11719C14.9427 6.36719 15.5 6.7526 15.9219 7.27344C16.3438 7.79427 16.6536 8.44531 16.8516 9.22656C17.0547 10.0026 17.1641 10.9036 17.1797 11.9297C17.2005 12.2318 17.2344 12.5443 17.2812 12.8672C17.3281 13.1901 17.3984 13.4948 17.4922 13.7812C17.5911 14.0677 17.7266 14.2995 17.8984 14.4766C18.1224 14.7109 18.3464 14.9453 18.5703 15.1797C18.7995 15.4141 18.9896 15.6536 19.1406 15.8984C19.2917 16.1432 19.3672 16.3958 19.3672 16.6562C19.3672 16.9427 19.263 17.1719 19.0547 17.3438C18.8464 17.5156 18.5573 17.6016 18.1875 17.6016H14.8906C14.8698 18.1068 14.7318 18.5729 14.4766 19C14.2266 19.4323 13.888 19.7786 13.4609 20.0391C13.0339 20.2995 12.5443 20.4297 11.9922 20.4297C11.4453 20.4297 10.9583 20.2969 10.5312 20.0312C10.1042 19.7708 9.76302 19.4271 9.50781 19C9.25781 18.5729 9.1224 18.1068 9.10156 17.6016H5.80469C5.4349 17.6016 5.14583 17.5156 4.9375 17.3438C4.72917 17.1719 4.625 16.9427 4.625 16.6562ZM6.14062 16.4219H17.8438V16.3281C17.7969 16.2552 17.7188 16.1589 17.6094 16.0391C17.5052 15.9141 17.3828 15.7786 17.2422 15.6328C17.1068 15.487 16.9688 15.3385 16.8281 15.1875C16.6875 15.0312 16.5651 14.8516 16.4609 14.6484C16.3568 14.4401 16.2682 14.2057 16.1953 13.9453C16.1276 13.6849 16.0703 13.3958 16.0234 13.0781C15.9818 12.7604 15.9531 12.4115 15.9375 12.0312C15.9167 10.8958 15.7969 9.99479 15.5781 9.32812C15.3646 8.66146 15.0781 8.16667 14.7188 7.84375C14.3646 7.51562 13.9635 7.28906 13.5156 7.16406C13.4219 7.14323 13.3464 7.10677 13.2891 7.05469C13.237 6.9974 13.2109 6.91927 13.2109 6.82031C13.1953 6.41406 13.0781 6.08333 12.8594 5.82812C12.6458 5.56771 12.3568 5.4375 11.9922 5.4375C11.6328 5.4375 11.3438 5.56771 11.125 5.82812C10.9115 6.08333 10.7969 6.41406 10.7812 6.82031C10.776 6.91927 10.7474 6.9974 10.6953 7.05469C10.6432 7.10677 10.5677 7.14323 10.4688 7.16406C10.0208 7.28906 9.61719 7.51562 9.25781 7.84375C8.90365 8.16667 8.61979 8.66146 8.40625 9.32812C8.19271 9.99479 8.07552 10.8958 8.05469 12.0312C8.03385 12.4115 8.0026 12.7604 7.96094 13.0781C7.91927 13.3958 7.86198 13.6849 7.78906 13.9453C7.71615 14.2057 7.6276 14.4401 7.52344 14.6484C7.41927 14.8516 7.29688 15.0312 7.15625 15.1875C7.02083 15.3385 6.88281 15.487 6.74219 15.6328C6.60677 15.7786 6.48438 15.9141 6.375 16.0391C6.26562 16.1589 6.1875 16.2552 6.14062 16.3281V16.4219ZM10.3203 17.6016C10.3464 18.1328 10.513 18.5521 10.8203 18.8594C11.1328 19.1719 11.5234 19.3281 11.9922 19.3281C12.4661 19.3281 12.8568 19.1719 13.1641 18.8594C13.4714 18.5521 13.6406 18.1328 13.6719 17.6016H10.3203Z" fill="black"/>
</svg>
