<svg width="24" height="24" viewBox="0 0 24 24" fill="none" xmlns="http://www.w3.org/2000/svg">
    <path d="M6.95508 20.4961C5.11816 20.4961 4.19531 19.5908 4.19531 17.7715V8.6748C4.19531 6.85547 5.11816 5.9502 6.95508 5.9502H8.5459C8.71289 4.16602 10.1455 2.8125 11.9912 2.8125C13.8457 2.8125 15.2783 4.1748 15.4453 5.9502H17.0361C18.8643 5.9502 19.7959 6.86426 19.7959 8.6748V17.7715C19.7959 19.582 18.873 20.4961 17.2998 20.4961H6.95508ZM11.9912 4.14844C10.8926 4.14844 10.1104 4.87793 9.96973 5.9502H14.0215C13.8809 4.87793 13.0986 4.14844 11.9912 4.14844ZM6.97266 19.0811H17.2734C17.8799 19.0811 18.3809 18.6152 18.3809 17.7012V8.74512C18.3809 7.83105 17.8799 7.36523 17.0098 7.36523H6.97266C6.09375 7.36523 5.61035 7.83105 5.61035 8.74512V17.7012C5.61035 18.6152 6.09375 19.0811 6.97266 19.0811Z" fill="black"/>
</svg>
