<svg width="24" height="24" viewBox="0 0 24 24" fill="none" xmlns="http://www.w3.org/2000/svg">
    <path d="M7.1875 12.3594C7.1875 12.2604 7.20573 12.1693 7.24219 12.0859C7.27865 11.9974 7.33333 11.9167 7.40625 11.8438L13.6016 5.78125C13.7422 5.64583 13.9115 5.57812 14.1094 5.57812C14.2448 5.57812 14.3646 5.60938 14.4688 5.67188C14.5781 5.73438 14.6641 5.82031 14.7266 5.92969C14.7943 6.03385 14.8281 6.15365 14.8281 6.28906C14.8281 6.48177 14.7578 6.65104 14.6172 6.79688L8.92969 12.3594L14.6172 17.9219C14.7578 18.0677 14.8281 18.237 14.8281 18.4297C14.8281 18.5651 14.7943 18.6849 14.7266 18.7891C14.6641 18.8984 14.5781 18.9844 14.4688 19.0469C14.3646 19.1094 14.2448 19.1406 14.1094 19.1406C13.9115 19.1406 13.7422 19.0703 13.6016 18.9297L7.40625 12.875C7.33333 12.8021 7.27865 12.724 7.24219 12.6406C7.20573 12.5521 7.1875 12.4583 7.1875 12.3594Z" fill="black"/>
</svg>
