<svg width="24" height="24" viewBox="0 0 24 24" fill="none" xmlns="http://www.w3.org/2000/svg">
    <path d="M6.91406 16.0703C5.47852 16.0703 4.76758 15.3594 4.76758 13.9512V7.0332C4.76758 5.625 5.47852 4.91406 6.91406 4.91406H13.7773C15.1992 4.91406 15.917 5.625 15.917 7.0332V8.0791H17.0928C18.5146 8.0791 19.2324 8.79004 19.2324 10.1982V17.1162C19.2324 18.5244 18.5146 19.2354 17.0928 19.2354H10.2295C8.79395 19.2354 8.08301 18.5244 8.08301 17.1162V16.0703H6.91406ZM6.92773 14.9697H8.08301V10.1982C8.08301 8.7832 8.79395 8.0791 10.2295 8.0791H14.8164V7.09473C14.8164 6.38379 14.4336 6.01465 13.7568 6.01465H6.92773C6.24414 6.01465 5.86816 6.38379 5.86816 7.09473V13.8896C5.86816 14.6006 6.24414 14.9697 6.92773 14.9697ZM10.2432 18.1348H17.0723C17.749 18.1348 18.1318 17.7656 18.1318 17.0547V10.2598C18.1318 9.54883 17.749 9.17969 17.0723 9.17969H10.2432C9.56641 9.17969 9.18359 9.54883 9.18359 10.2598V17.0547C9.18359 17.7656 9.56641 18.1348 10.2432 18.1348Z" fill="black"/>
</svg>
