<svg width="24" height="24" viewBox="0 0 24 24" fill="none" xmlns="http://www.w3.org/2000/svg">
    <path d="M12 20.6191C7.10449 20.6191 3.03516 16.5498 3.03516 11.6543C3.03516 6.75 7.0957 2.68945 11.9912 2.68945C16.8955 2.68945 20.9648 6.75 20.9648 11.6543C20.9648 16.5498 16.9043 20.6191 12 20.6191ZM12 19.125C16.1484 19.125 19.4707 15.8027 19.4707 11.6543C19.4707 7.50586 16.1396 4.18359 11.9912 4.18359C7.84277 4.18359 4.53809 7.50586 4.53809 11.6543C4.53809 15.8027 7.85156 19.125 12 19.125ZM11.9912 16.6729C11.7539 16.6729 11.5781 16.5059 11.5781 16.2598V15.627C10.4004 15.5127 9.41602 14.8623 9.16992 13.8516C9.14355 13.7637 9.12598 13.6758 9.12598 13.5791C9.12598 13.2715 9.33691 13.0605 9.63574 13.0605C9.89941 13.0605 10.0752 13.2012 10.1807 13.5C10.3213 14.0889 10.7871 14.5283 11.5781 14.6426V12.041L11.5166 12.0234C10.0488 11.6807 9.29297 11.0127 9.29297 9.89648C9.29297 8.70117 10.2422 7.86621 11.5781 7.7168V7.11035C11.5781 6.86426 11.7539 6.69727 11.9912 6.69727C12.2285 6.69727 12.4043 6.86426 12.4043 7.11035V7.7168C13.5293 7.84863 14.4346 8.49902 14.6631 9.44824C14.6807 9.54492 14.707 9.63281 14.707 9.7207C14.707 10.0283 14.4873 10.2393 14.1885 10.2393C13.9072 10.2393 13.7402 10.0723 13.6523 9.80859C13.4766 9.21973 13.0371 8.8418 12.4043 8.72754V11.1797L12.5273 11.2061C14.0566 11.4785 14.8301 12.1992 14.8301 13.3945C14.8301 14.7217 13.7666 15.5127 12.4043 15.6445V16.2598C12.4043 16.5059 12.2285 16.6729 11.9912 16.6729ZM11.5781 10.96V8.72754C10.8311 8.85938 10.374 9.30762 10.374 9.84375C10.374 10.3623 10.7256 10.7139 11.5166 10.9424L11.5781 10.96ZM12.4043 12.252V14.6426C13.3008 14.5371 13.7402 14.0713 13.7402 13.4561C13.7402 12.8936 13.4502 12.5332 12.5977 12.2959L12.4043 12.252Z" fill="black"/>
</svg>
