<svg width="24" height="24" viewBox="0 0 24 24" fill="none" xmlns="http://www.w3.org/2000/svg">
    <path d="M12 20.1953C10.9271 20.1953 9.91667 19.9896 8.96875 19.5781C8.02604 19.1719 7.19271 18.6094 6.46875 17.8906C5.75 17.1667 5.1849 16.3333 4.77344 15.3906C4.36719 14.4427 4.16406 13.4323 4.16406 12.3594C4.16406 11.2865 4.36719 10.2786 4.77344 9.33594C5.1849 8.38802 5.75 7.55469 6.46875 6.83594C7.1875 6.11198 8.01823 5.54688 8.96094 5.14062C9.90885 4.72917 10.9193 4.52344 11.9922 4.52344C13.0651 4.52344 14.0755 4.72917 15.0234 5.14062C15.9714 5.54688 16.8047 6.11198 17.5234 6.83594C18.2422 7.55469 18.8073 8.38802 19.2188 9.33594C19.6302 10.2786 19.8359 11.2865 19.8359 12.3594C19.8359 13.4323 19.6302 14.4427 19.2188 15.3906C18.8073 16.3333 18.2422 17.1667 17.5234 17.8906C16.8047 18.6094 15.9714 19.1719 15.0234 19.5781C14.0807 19.9896 13.0729 20.1953 12 20.1953ZM9.25 8.5625L7.17188 10.6641C7.13021 10.7109 7.09635 10.7604 7.07031 10.8125C7.04948 10.8646 7.03906 10.9167 7.03906 10.9688C7.03906 11.0833 7.07812 11.1797 7.15625 11.2578C7.23438 11.3359 7.33073 11.375 7.44531 11.375C7.5599 11.375 7.65885 11.3307 7.74219 11.2422L8.6875 10.2812L9.15625 9.79688L9.14062 10.3047V15.8828C9.14062 15.9974 9.17969 16.0938 9.25781 16.1719C9.33594 16.2448 9.4349 16.2812 9.55469 16.2812C9.67448 16.2812 9.77344 16.2448 9.85156 16.1719C9.92969 16.0938 9.96875 15.9974 9.96875 15.8828V10.2969L9.94531 9.79688L10.4141 10.2812L11.3516 11.25C11.4349 11.3333 11.5365 11.375 11.6562 11.375C11.7708 11.375 11.8646 11.3385 11.9375 11.2656C12.0156 11.1875 12.0547 11.0885 12.0547 10.9688C12.0547 10.849 12.013 10.7474 11.9297 10.6641L9.85156 8.5625C9.76823 8.47917 9.66927 8.4375 9.55469 8.4375C9.4401 8.43229 9.33854 8.47396 9.25 8.5625ZM14.7578 16.1641L16.8203 14.0703C16.9141 13.9714 16.9609 13.8672 16.9609 13.7578C16.9609 13.6432 16.9219 13.5495 16.8438 13.4766C16.7656 13.3984 16.6667 13.3594 16.5469 13.3594C16.4375 13.3594 16.3385 13.401 16.25 13.4844L15.3125 14.4375L14.8438 14.9219L14.8516 14.4297V8.84375C14.8516 8.72396 14.8125 8.6276 14.7344 8.55469C14.6562 8.47656 14.5599 8.4375 14.4453 8.4375C14.3255 8.4375 14.224 8.47656 14.1406 8.55469C14.0625 8.63281 14.0234 8.72917 14.0234 8.84375V14.4297L14.0469 14.9297L13.5781 14.4375L12.6406 13.4844C12.5625 13.401 12.4635 13.3594 12.3438 13.3594C12.2188 13.3594 12.1198 13.3958 12.0469 13.4688C11.974 13.5417 11.9375 13.638 11.9375 13.7578C11.9375 13.8724 11.9792 13.9766 12.0625 14.0703L14.1406 16.1641C14.224 16.2474 14.3255 16.2891 14.4453 16.2891C14.5651 16.2891 14.6693 16.2474 14.7578 16.1641Z" fill="black"/>
</svg>
