<svg width="24" height="24" viewBox="0 0 24 24" fill="none" xmlns="http://www.w3.org/2000/svg">
    <path d="M5.50781 13.9062V7.92969C5.50781 7.51823 5.59375 7.22396 5.76562 7.04688C5.94271 6.86458 6.19531 6.70573 6.52344 6.57031C6.70573 6.49219 6.95833 6.39062 7.28125 6.26562C7.60417 6.14062 7.96094 6.00521 8.35156 5.85938C8.74219 5.71354 9.13021 5.57031 9.51562 5.42969C9.90625 5.28385 10.263 5.15625 10.5859 5.04688C10.9089 4.93229 11.1641 4.84896 11.3516 4.79688C11.4557 4.77083 11.5625 4.74479 11.6719 4.71875C11.7812 4.69271 11.8906 4.67969 12 4.67969C12.1094 4.67969 12.2188 4.69271 12.3281 4.71875C12.4427 4.73958 12.5521 4.76562 12.6562 4.79688C12.8385 4.85938 13.0911 4.94792 13.4141 5.0625C13.737 5.17708 14.0938 5.30469 14.4844 5.44531C14.875 5.58594 15.263 5.72917 15.6484 5.875C16.0391 6.01562 16.3958 6.14844 16.7188 6.27344C17.0417 6.39323 17.2943 6.49219 17.4766 6.57031C17.8099 6.71094 18.0625 6.86979 18.2344 7.04688C18.4062 7.22396 18.4922 7.51823 18.4922 7.92969V13.9062C18.4922 14.6198 18.388 15.2422 18.1797 15.7734C17.9766 16.2995 17.6432 16.7891 17.1797 17.2422C16.7161 17.6953 16.1016 18.1615 15.3359 18.6406C14.5755 19.125 13.638 19.6797 12.5234 20.3047C12.4245 20.3568 12.3281 20.3958 12.2344 20.4219C12.1406 20.4479 12.0625 20.4609 12 20.4609C11.9375 20.4609 11.8594 20.4479 11.7656 20.4219C11.6719 20.3958 11.5755 20.3568 11.4766 20.3047C10.3672 19.6797 9.42969 19.125 8.66406 18.6406C7.90365 18.1562 7.29167 17.6875 6.82812 17.2344C6.36458 16.7812 6.02865 16.2917 5.82031 15.7656C5.61198 15.2396 5.50781 14.6198 5.50781 13.9062ZM12.1641 19.0156C12.2109 19 12.2604 18.9792 12.3125 18.9531C12.3698 18.9271 12.4271 18.8958 12.4844 18.8594C13.3854 18.3125 14.1406 17.8411 14.75 17.4453C15.3646 17.0495 15.8542 16.6745 16.2188 16.3203C16.5885 15.9661 16.8516 15.5781 17.0078 15.1562C17.1693 14.7344 17.25 14.2214 17.25 13.6172V8.17188C17.25 8.04167 17.2318 7.94271 17.1953 7.875C17.1641 7.80729 17.0964 7.75521 16.9922 7.71875C16.7474 7.63542 16.4661 7.53906 16.1484 7.42969C15.8359 7.3151 15.5052 7.19531 15.1562 7.07031C14.8125 6.94531 14.4661 6.82031 14.1172 6.69531C13.7734 6.5651 13.4453 6.44271 13.1328 6.32812C12.8203 6.20833 12.5469 6.10156 12.3125 6.00781C12.2812 5.99219 12.2526 5.98177 12.2266 5.97656C12.2057 5.97135 12.1849 5.96615 12.1641 5.96094V19.0156Z" fill="black"/>
</svg>
