<svg width="24" height="24" viewBox="0 0 24 24" fill="none" xmlns="http://www.w3.org/2000/svg">
    <path d="M12 20.1953C10.9271 20.1953 9.91667 19.9896 8.96875 19.5781C8.02604 19.1719 7.19271 18.6094 6.46875 17.8906C5.75 17.1667 5.1849 16.3333 4.77344 15.3906C4.36719 14.4427 4.16406 13.4323 4.16406 12.3594C4.16406 11.2865 4.36719 10.2786 4.77344 9.33594C5.1849 8.38802 5.75 7.55469 6.46875 6.83594C7.1875 6.11198 8.01823 5.54688 8.96094 5.14062C9.90885 4.72917 10.9193 4.52344 11.9922 4.52344C13.0651 4.52344 14.0755 4.72917 15.0234 5.14062C15.9714 5.54688 16.8047 6.11198 17.5234 6.83594C18.2422 7.55469 18.8073 8.38802 19.2188 9.33594C19.6302 10.2786 19.8359 11.2865 19.8359 12.3594C19.8359 13.4323 19.6302 14.4427 19.2188 15.3906C18.8073 16.3333 18.2422 17.1667 17.5234 17.8906C16.8047 18.6094 15.9714 19.1719 15.0234 19.5781C14.0807 19.9896 13.0729 20.1953 12 20.1953ZM12.0234 16.6953C12.5339 16.6953 13.0312 16.6042 13.5156 16.4219C14 16.2396 14.4219 15.9896 14.7812 15.6719C14.9323 15.5469 15.0208 15.4115 15.0469 15.2656C15.0781 15.1146 15.0365 14.9844 14.9219 14.875C14.8125 14.7604 14.6927 14.7083 14.5625 14.7188C14.4323 14.724 14.3047 14.776 14.1797 14.875C13.8411 15.1615 13.4974 15.3724 13.1484 15.5078C12.8047 15.6432 12.4297 15.7109 12.0234 15.7109C11.4661 15.7109 10.9505 15.5938 10.4766 15.3594C10.0026 15.125 9.60417 14.8047 9.28125 14.3984C8.96354 13.987 8.75 13.5208 8.64062 13H9.52344C9.67448 13 9.76823 12.9453 9.80469 12.8359C9.84115 12.7214 9.81771 12.6042 9.73438 12.4844L8.53906 10.7656C8.4349 10.6198 8.3125 10.5469 8.17188 10.5469C8.03125 10.5469 7.91146 10.6198 7.8125 10.7656L6.625 12.4844C6.54167 12.6042 6.51562 12.7214 6.54688 12.8359C6.57812 12.9453 6.66927 13 6.82031 13H7.70312C7.82292 13.7344 8.08333 14.3802 8.48438 14.9375C8.89062 15.4896 9.39844 15.9219 10.0078 16.2344C10.6172 16.5417 11.2891 16.6953 12.0234 16.6953ZM12.0156 8.01562C11.5104 8.01562 11.013 8.10677 10.5234 8.28906C10.0391 8.46615 9.61719 8.71615 9.25781 9.03906C9.10677 9.15885 9.01823 9.29427 8.99219 9.44531C8.96615 9.59115 9.00781 9.71875 9.11719 9.82812C9.22656 9.94271 9.34635 9.9974 9.47656 9.99219C9.60677 9.98177 9.73438 9.92708 9.85938 9.82812C10.2031 9.54167 10.5469 9.33333 10.8906 9.20312C11.2344 9.06771 11.6094 9 12.0156 9C12.5781 9 13.0938 9.11719 13.5625 9.35156C14.0365 9.58594 14.4323 9.90885 14.75 10.3203C15.0729 10.7266 15.2891 11.1875 15.3984 11.7031H14.4844C14.3333 11.7031 14.2396 11.7604 14.2031 11.875C14.1667 11.9896 14.1901 12.1042 14.2734 12.2188L15.4766 13.9453C15.5755 14.0807 15.6953 14.151 15.8359 14.1562C15.9766 14.1562 16.099 14.0859 16.2031 13.9453L17.3828 12.2188C17.4661 12.099 17.4922 11.9844 17.4609 11.875C17.4349 11.7604 17.3438 11.7031 17.1875 11.7031H16.3359C16.2161 10.974 15.9531 10.3333 15.5469 9.78125C15.1458 9.22396 14.6406 8.79167 14.0312 8.48438C13.4219 8.17188 12.75 8.01562 12.0156 8.01562Z" fill="black"/>
</svg>
