<svg width="24" height="24" viewBox="0 0 24 24" fill="none" xmlns="http://www.w3.org/2000/svg">
    <path d="M9.61719 17.9922C9.76823 17.9922 9.89062 17.9479 9.98438 17.8594C10.0781 17.7708 10.1224 17.6562 10.1172 17.5156L9.86719 8.90625C9.86719 8.76042 9.82031 8.64583 9.72656 8.5625C9.63281 8.47917 9.51302 8.4375 9.36719 8.4375C9.21094 8.4375 9.08594 8.48177 8.99219 8.57031C8.90365 8.65365 8.86198 8.76823 8.86719 8.91406L9.10156 17.5156C9.11198 17.6615 9.16146 17.7786 9.25 17.8672C9.34375 17.9505 9.46615 17.9922 9.61719 17.9922ZM12 17.9922C12.1562 17.9922 12.2812 17.9505 12.375 17.8672C12.474 17.7786 12.5234 17.6615 12.5234 17.5156V8.91406C12.5234 8.76823 12.474 8.65365 12.375 8.57031C12.2812 8.48177 12.1562 8.4375 12 8.4375C11.849 8.4375 11.724 8.48177 11.625 8.57031C11.5312 8.65365 11.4844 8.76823 11.4844 8.91406V17.5156C11.4844 17.6615 11.5312 17.7786 11.625 17.8672C11.724 17.9505 11.849 17.9922 12 17.9922ZM14.3906 17.9922C14.5417 17.9922 14.6615 17.9505 14.75 17.8672C14.8438 17.7839 14.8932 17.6667 14.8984 17.5156L15.1328 8.91406C15.138 8.76823 15.0938 8.65365 15 8.57031C14.9115 8.48177 14.7891 8.4375 14.6328 8.4375C14.4922 8.4375 14.375 8.47917 14.2812 8.5625C14.1875 8.64583 14.138 8.76302 14.1328 8.91406L13.8906 17.5156C13.8854 17.6615 13.9271 17.7786 14.0156 17.8672C14.1094 17.9505 14.2344 17.9922 14.3906 17.9922ZM8.57031 6.53906V4.78906C8.57031 4.22656 8.74219 3.78385 9.08594 3.46094C9.4349 3.13281 9.90885 2.96875 10.5078 2.96875H13.4766C14.0755 2.96875 14.5469 3.13281 14.8906 3.46094C15.2396 3.78385 15.4141 4.22656 15.4141 4.78906V6.53906H14.1719V4.86719C14.1719 4.64844 14.099 4.47135 13.9531 4.33594C13.8125 4.20052 13.625 4.13281 13.3906 4.13281H10.5938C10.3594 4.13281 10.1693 4.20052 10.0234 4.33594C9.88281 4.47135 9.8125 4.64844 9.8125 4.86719V6.53906H8.57031ZM5.02344 7.16406C4.86719 7.16406 4.72917 7.10677 4.60938 6.99219C4.49479 6.8724 4.4375 6.73177 4.4375 6.57031C4.4375 6.41406 4.49479 6.27865 4.60938 6.16406C4.72917 6.04427 4.86719 5.98438 5.02344 5.98438H18.9844C19.1406 5.98438 19.276 6.04167 19.3906 6.15625C19.5052 6.27083 19.5625 6.40885 19.5625 6.57031C19.5625 6.73177 19.5052 6.8724 19.3906 6.99219C19.2812 7.10677 19.1458 7.16406 18.9844 7.16406H5.02344ZM8.42188 20.3672C7.85938 20.3672 7.40365 20.2005 7.05469 19.8672C6.71094 19.5391 6.52604 19.0938 6.5 18.5312L5.94531 7H18.0547L17.5078 18.5234C17.4818 19.0859 17.2943 19.5339 16.9453 19.8672C16.5964 20.2005 16.1432 20.3672 15.5859 20.3672H8.42188Z" fill="black"/>
</svg>
