<svg width="24" height="24" viewBox="0 0 24 24" fill="none" xmlns="http://www.w3.org/2000/svg">
    <path d="M8.42188 19.8203C7.84896 19.8203 7.41146 19.6641 7.10938 19.3516C6.8125 19.0391 6.66406 18.5755 6.66406 17.9609V12.5781C6.66406 11.9635 6.8125 11.5026 7.10938 11.1953C7.41146 10.8828 7.84896 10.7266 8.42188 10.7266H15.5703C16.1432 10.7266 16.5781 10.8828 16.875 11.1953C17.1771 11.5026 17.3281 11.9635 17.3281 12.5781V17.9609C17.3281 18.5755 17.1771 19.0391 16.875 19.3516C16.5781 19.6641 16.1432 19.8203 15.5703 19.8203H8.42188ZM8.03125 11.3281V8.85938C8.03125 7.88021 8.21875 7.06771 8.59375 6.42188C8.97396 5.77604 9.46615 5.29427 10.0703 4.97656C10.6745 4.65365 11.3151 4.49219 11.9922 4.49219C12.6745 4.49219 13.3177 4.65365 13.9219 4.97656C14.526 5.29427 15.0156 5.77604 15.3906 6.42188C15.7708 7.06771 15.9609 7.88021 15.9609 8.85938V11.3281H14.7266V8.6875C14.7266 8.03125 14.599 7.47917 14.3438 7.03125C14.0938 6.58333 13.7604 6.24479 13.3438 6.01562C12.9323 5.78646 12.4818 5.67188 11.9922 5.67188C11.5078 5.67188 11.0573 5.78646 10.6406 6.01562C10.2292 6.24479 9.89844 6.58333 9.64844 7.03125C9.39844 7.47917 9.27344 8.03125 9.27344 8.6875V11.3281H8.03125Z" fill="black"/>
</svg>
