<svg width="24" height="24" viewBox="0 0 24 24" fill="none" xmlns="http://www.w3.org/2000/svg">
    <path d="M12 20.3281C7.64844 20.3281 4.03125 16.7109 4.03125 12.3594C4.03125 8 7.64062 4.39062 11.9922 4.39062C16.3516 4.39062 19.9688 8 19.9688 12.3594C19.9688 16.7109 16.3594 20.3281 12 20.3281ZM7.32812 7.29688C7.72656 7.57812 8.21094 7.8125 8.76562 7.99219C9.10938 7.03906 9.57031 6.26562 10.1094 5.71875C9.0625 6.02344 8.10938 6.57031 7.32812 7.29688ZM13.8984 5.72656C14.4297 6.27344 14.8906 7.04688 15.2344 7.99219C15.7891 7.8125 16.2734 7.58594 16.6719 7.30469C15.8828 6.57812 14.9375 6.03125 13.8984 5.72656ZM9.77344 8.25C10.3047 8.34375 10.875 8.40625 11.4922 8.42969V5.89844C10.8203 6.19531 10.2109 7.05469 9.77344 8.25ZM12.5156 5.89844V8.42969C13.125 8.40625 13.6953 8.34375 14.2266 8.25C13.7891 7.05469 13.1797 6.19531 12.5156 5.89844ZM5.10938 11.8438H8.0625C8.10156 10.7969 8.24219 9.82031 8.46875 8.94531C7.74219 8.71094 7.11719 8.40625 6.63281 8.03906C5.77344 9.10156 5.21875 10.4219 5.10938 11.8438ZM15.9375 11.8438H18.8906C18.7812 10.4219 18.2266 9.10156 17.3594 8.04688C16.8828 8.40625 16.2578 8.71094 15.5312 8.94531C15.7578 9.82031 15.8984 10.7969 15.9375 11.8438ZM12.5156 11.8438H14.8906C14.8516 10.9062 14.7266 10.0156 14.5234 9.21094C13.8906 9.34375 13.2188 9.42969 12.5156 9.45312V11.8438ZM9.10938 11.8438H11.4922V9.45312C10.7812 9.42969 10.1094 9.34375 9.47656 9.21094C9.28125 10.0156 9.14844 10.9062 9.10938 11.8438ZM5.10938 12.8672C5.21875 14.3047 5.78125 15.6328 6.65625 16.7031C7.13281 16.3438 7.75 16.0391 8.46875 15.8047C8.24219 14.9219 8.10156 13.9375 8.0625 12.8672H5.10938ZM9.10938 12.8672C9.14062 13.8203 9.28125 14.7266 9.49219 15.5391C10.1172 15.4141 10.7891 15.3281 11.4922 15.3047V12.8672H9.10938ZM12.5156 15.3047C13.2109 15.3281 13.8906 15.4141 14.5078 15.5391C14.7188 14.7266 14.8594 13.8203 14.8906 12.8672H12.5156V15.3047ZM15.5312 15.8047C16.25 16.0391 16.8672 16.3438 17.3438 16.7031C18.2188 15.6328 18.7812 14.3047 18.8906 12.8672H15.9375C15.8984 13.9375 15.7578 14.9219 15.5312 15.8047ZM12.5156 16.3281V18.8281C13.1719 18.5312 13.7734 17.6719 14.2109 16.5078C13.6875 16.4062 13.1172 16.3516 12.5156 16.3281ZM9.78906 16.5078C10.2266 17.6719 10.8281 18.5312 11.4922 18.8281V16.3281C10.8828 16.3516 10.3125 16.4062 9.78906 16.5078ZM15.2266 16.7578C14.8828 17.6875 14.4297 18.4531 13.9062 18.9922C14.9375 18.6875 15.8672 18.1484 16.6484 17.4375C16.25 17.1641 15.7734 16.9375 15.2266 16.7578ZM7.35156 17.4375C8.13281 18.1484 9.07031 18.6875 10.1016 18.9922C9.57031 18.4531 9.11719 17.6875 8.77344 16.7578C8.22656 16.9375 7.75 17.1641 7.35156 17.4375Z" fill="black"/>
</svg>
