<svg width="24" height="24" viewBox="0 0 24 24" fill="none" xmlns="http://www.w3.org/2000/svg">
    <path d="M8.77441 8.80664C7.1748 8.80664 5.83887 7.47949 5.83887 5.87988C5.83887 4.28027 7.1748 2.94434 8.77441 2.94434C10.374 2.94434 11.71 4.28027 11.71 5.87988C11.71 7.47949 10.374 8.80664 8.77441 8.80664ZM15.2168 8.80664C13.6172 8.80664 12.2812 7.47949 12.2812 5.87988C12.2812 4.28027 13.6172 2.94434 15.2168 2.94434C16.8164 2.94434 18.1523 4.28027 18.1523 5.87988C18.1523 7.47949 16.8164 8.80664 15.2168 8.80664ZM8.77441 7.3916C9.60059 7.3916 10.2949 6.69727 10.2949 5.87988C10.2949 5.05371 9.60059 4.35938 8.77441 4.35938C7.94824 4.35938 7.25391 5.05371 7.25391 5.87988C7.25391 6.69727 7.94824 7.3916 8.77441 7.3916ZM15.2168 7.3916C16.043 7.3916 16.7373 6.69727 16.7373 5.87988C16.7373 5.05371 16.043 4.35938 15.2168 4.35938C14.3906 4.35938 13.6963 5.05371 13.6963 5.87988C13.6963 6.69727 14.3906 7.3916 15.2168 7.3916ZM5.54883 14.5898C3.94922 14.5898 2.61328 13.2539 2.61328 11.6543C2.61328 10.0547 3.94922 8.71875 5.54883 8.71875C7.15723 8.71875 8.49316 10.0547 8.49316 11.6543C8.49316 13.2539 7.15723 14.5898 5.54883 14.5898ZM12 14.5898C10.3916 14.5898 9.05566 13.2539 9.05566 11.6543C9.05566 10.0547 10.3916 8.71875 12 8.71875C13.5996 8.71875 14.9355 10.0547 14.9355 11.6543C14.9355 13.2539 13.5996 14.5898 12 14.5898ZM18.4424 14.5898C16.8428 14.5898 15.498 13.2539 15.498 11.6543C15.498 10.0547 16.8428 8.71875 18.4424 8.71875C20.042 8.71875 21.3779 10.0547 21.3779 11.6543C21.3779 13.2539 20.042 14.5898 18.4424 14.5898ZM5.54883 13.1748C6.375 13.1748 7.07812 12.4805 7.07812 11.6543C7.07812 10.8281 6.375 10.1338 5.54883 10.1338C4.72266 10.1338 4.02832 10.8281 4.02832 11.6543C4.02832 12.4805 4.72266 13.1748 5.54883 13.1748ZM12 13.1748C12.8262 13.1748 13.5205 12.4805 13.5205 11.6543C13.5205 10.8281 12.8262 10.1338 12 10.1338C11.165 10.1338 10.4707 10.8281 10.4707 11.6543C10.4707 12.4805 11.165 13.1748 12 13.1748ZM18.4424 13.1748C19.2686 13.1748 19.9629 12.4805 19.9629 11.6543C19.9629 10.8281 19.2686 10.1338 18.4424 10.1338C17.6162 10.1338 16.9131 10.8281 16.9131 11.6543C16.9131 12.4805 17.6162 13.1748 18.4424 13.1748ZM8.77441 20.3643C7.1748 20.3643 5.83887 19.0283 5.83887 17.4287C5.83887 15.8203 7.1748 14.4932 8.77441 14.4932C10.374 14.4932 11.71 15.8203 11.71 17.4287C11.71 19.0195 10.374 20.3643 8.77441 20.3643ZM15.2168 20.3643C13.6172 20.3643 12.2812 19.0283 12.2812 17.4287C12.2812 15.8203 13.6172 14.4932 15.2168 14.4932C16.8164 14.4932 18.1523 15.8203 18.1523 17.4287C18.1523 19.0283 16.8164 20.3643 15.2168 20.3643ZM8.77441 18.9492C9.60059 18.9492 10.2949 18.2549 10.2949 17.4287C10.2949 16.6025 9.60059 15.9082 8.77441 15.9082C7.94824 15.9082 7.25391 16.6025 7.25391 17.4287C7.25391 18.2549 7.94824 18.9492 8.77441 18.9492ZM15.2168 18.9492C16.043 18.9492 16.7373 18.2549 16.7373 17.4287C16.7373 16.6025 16.043 15.9082 15.2168 15.9082C14.3906 15.9082 13.6963 16.6025 13.6963 17.4287C13.6963 18.2549 14.3906 18.9492 15.2168 18.9492Z" fill="black"/>
</svg>
