<svg width="24" height="24" viewBox="0 0 20 20" fill="none" xmlns="http://www.w3.org/2000/svg">
    <path d="M14 7C14 7.5523 13.5523 8 13 8C12.4477 8 12 7.5523 12 7C12 6.4477 12.4477 6 13 6C13.5523 6 14 6.4477 14 7Z" fill="#666666" />
    <path d="M11.9141 10C11.9141 11.0571 11.0571 11.9141 10 11.9141C8.94287 11.9141 8.08594 11.0571 8.08594 10C8.08594 8.94287 8.94287 8.08594 10 8.08594C11.0571 8.08594 11.9141 8.94287 11.9141 10Z" fill="#666666"/>
    <path d="M10 0C4.478 0 0 4.478 0 10C0 15.522 4.478 20 10 20C15.522 20 20 15.522 20 10C20 4.478 15.522 0 10 0ZM15.7076 12.3674C15.6798 12.9787 15.5826 13.396 15.4407 13.7613C15.1424 14.5326 14.5326 15.1424 13.7613 15.4407C13.3961 15.5826 12.9787 15.6796 12.3676 15.7076C11.7552 15.7355 11.5596 15.7422 10.0002 15.7422C8.44055 15.7422 8.24509 15.7355 7.6326 15.7076C7.02148 15.6796 6.604 15.5826 6.23886 15.4407C5.85556 15.2965 5.50858 15.0705 5.22171 14.7783C4.92966 14.4916 4.70367 14.1444 4.55948 13.7613C4.41757 13.3961 4.32037 12.9787 4.2926 12.3676C4.26437 11.7551 4.25781 11.5594 4.25781 10C4.25781 8.44055 4.26437 8.24493 4.29245 7.6326C4.32022 7.02133 4.41727 6.604 4.55917 6.23871C4.70337 5.85556 4.9295 5.50842 5.22171 5.22171C5.50842 4.9295 5.85556 4.70352 6.23871 4.55933C6.604 4.41742 7.02133 4.32037 7.6326 4.29245C8.24493 4.26453 8.44055 4.25781 10 4.25781C11.5594 4.25781 11.7551 4.26453 12.3674 4.2926C12.9787 4.32037 13.396 4.41742 13.7613 4.55917C14.1444 4.70337 14.4916 4.9295 14.7784 5.22171C15.0705 5.50858 15.2966 5.85556 15.4407 6.23871C15.5827 6.604 15.6798 7.02133 15.7077 7.6326C15.7356 8.24493 15.7422 8.44055 15.7422 10C15.7422 11.5594 15.7356 11.7551 15.7076 12.3674Z" fill="#666666" />
</svg>
