<svg width="24" height="24" viewBox="0 0 24 24" fill="none" xmlns="http://www.w3.org/2000/svg">
    <path d="M12 19.0078C10.9688 19.0078 9.99219 18.8828 9.07031 18.6328C8.14844 18.3828 7.29427 18.0521 6.50781 17.6406C5.72135 17.2292 5.01302 16.776 4.38281 16.2812C3.75781 15.7865 3.22135 15.2891 2.77344 14.7891C2.33073 14.2891 1.99219 13.8281 1.75781 13.4062C1.52344 12.9792 1.40625 12.6328 1.40625 12.3672C1.40625 12.1016 1.52344 11.7578 1.75781 11.3359C1.99219 10.9089 2.33073 10.4453 2.77344 9.94531C3.22135 9.44531 3.75781 8.94792 4.38281 8.45312C5.01302 7.95833 5.72135 7.50521 6.50781 7.09375C7.29427 6.68229 8.14844 6.35156 9.07031 6.10156C9.99219 5.85156 10.9688 5.72656 12 5.72656C13.0417 5.72656 14.0234 5.85156 14.9453 6.10156C15.8724 6.35156 16.7292 6.68229 17.5156 7.09375C18.3021 7.50521 19.0078 7.95833 19.6328 8.45312C20.2578 8.94792 20.7891 9.44531 21.2266 9.94531C21.6693 10.4453 22.0052 10.9089 22.2344 11.3359C22.4688 11.7578 22.5859 12.1016 22.5859 12.3672C22.5859 12.6328 22.4688 12.9792 22.2344 13.4062C22.0052 13.8281 21.6693 14.2891 21.2266 14.7891C20.7891 15.2891 20.2578 15.7865 19.6328 16.2812C19.013 16.776 18.3099 17.2292 17.5234 17.6406C16.737 18.0521 15.8802 18.3828 14.9531 18.6328C14.026 18.8828 13.0417 19.0078 12 19.0078ZM12 16.7188C12.6042 16.7188 13.1693 16.6068 13.6953 16.3828C14.2266 16.1536 14.6901 15.8385 15.0859 15.4375C15.487 15.0312 15.7995 14.5677 16.0234 14.0469C16.2526 13.5208 16.3672 12.9609 16.3672 12.3672C16.3672 11.7578 16.2526 11.1901 16.0234 10.6641C15.7995 10.138 15.487 9.67708 15.0859 9.28125C14.6901 8.88021 14.2266 8.57031 13.6953 8.35156C13.1693 8.1276 12.6042 8.01562 12 8.01562C11.3906 8.01562 10.8203 8.1276 10.2891 8.35156C9.76302 8.57031 9.29948 8.88021 8.89844 9.28125C8.4974 9.67708 8.1849 10.138 7.96094 10.6641C7.73698 11.1901 7.625 11.7578 7.625 12.3672C7.625 12.9609 7.73698 13.5208 7.96094 14.0469C8.1901 14.5677 8.5026 15.0312 8.89844 15.4375C9.29948 15.8385 9.76302 16.1536 10.2891 16.3828C10.8203 16.6068 11.3906 16.7188 12 16.7188ZM12 13.9375C11.5625 13.9375 11.1875 13.7839 10.875 13.4766C10.5625 13.1641 10.4062 12.7943 10.4062 12.3672C10.4062 11.9349 10.5625 11.5651 10.875 11.2578C11.1875 10.9453 11.5625 10.7891 12 10.7891C12.4323 10.7891 12.8047 10.9453 13.1172 11.2578C13.4297 11.5651 13.5859 11.9349 13.5859 12.3672C13.5859 12.7943 13.4297 13.1641 13.1172 13.4766C12.8047 13.7839 12.4323 13.9375 12 13.9375Z" fill="black"/>
</svg>
