<svg width="24" height="24" viewBox="0 0 24 24" fill="none" xmlns="http://www.w3.org/2000/svg">
    <path d="M8.42188 19.8203C7.84896 19.8203 7.41146 19.6641 7.10938 19.3516C6.8125 19.0443 6.66406 18.5807 6.66406 17.9609V12.5781C6.66406 11.9635 6.8125 11.5026 7.10938 11.1953C7.41146 10.8828 7.84896 10.7266 8.42188 10.7266H15.5703C16.1432 10.7266 16.5781 10.8828 16.875 11.1953C17.1771 11.5026 17.3281 11.9635 17.3281 12.5781V17.9609C17.3281 18.5807 17.1771 19.0443 16.875 19.3516C16.5781 19.6641 16.1432 19.8203 15.5703 19.8203H8.42188ZM8.46094 18.6406H15.5312C15.7031 18.6406 15.8333 18.5885 15.9219 18.4844C16.0156 18.3854 16.0625 18.2396 16.0625 18.0469V12.4922C16.0625 12.2995 16.0156 12.1536 15.9219 12.0547C15.8333 11.9557 15.7031 11.9062 15.5312 11.9062H8.46094C8.29427 11.9062 8.16406 11.9557 8.07031 12.0547C7.97656 12.1536 7.92969 12.2995 7.92969 12.4922V18.0469C7.92969 18.2396 7.97656 18.3854 8.07031 18.4844C8.16406 18.5885 8.29427 18.6406 8.46094 18.6406ZM8.03125 11.3281V8.85938C8.03125 7.88021 8.21875 7.06771 8.59375 6.42188C8.97396 5.77604 9.46615 5.29427 10.0703 4.97656C10.6745 4.65885 11.3151 4.5 11.9922 4.5C12.6745 4.5 13.3177 4.65885 13.9219 4.97656C14.526 5.29427 15.0156 5.77604 15.3906 6.42188C15.7708 7.06771 15.9609 7.88021 15.9609 8.85938V11.3281H14.7266V8.69531C14.7266 8.03906 14.599 7.48698 14.3438 7.03906C14.0938 6.59115 13.7604 6.2526 13.3438 6.02344C12.9323 5.79427 12.4818 5.67969 11.9922 5.67969C11.5078 5.67969 11.0573 5.79427 10.6406 6.02344C10.2292 6.2526 9.89844 6.59115 9.64844 7.03906C9.39844 7.48698 9.27344 8.03906 9.27344 8.69531V11.3281H8.03125Z" fill="black"/>
</svg>
