<svg width="24" height="24" viewBox="0 0 24 24" fill="none" xmlns="http://www.w3.org/2000/svg">
    <path d="M12 20.3281C10.9115 20.3281 9.88542 20.1198 8.92188 19.7031C7.96354 19.2865 7.11719 18.7109 6.38281 17.9766C5.64844 17.2422 5.07292 16.3958 4.65625 15.4375C4.23958 14.474 4.03125 13.4479 4.03125 12.3594C4.03125 11.2708 4.23958 10.2474 4.65625 9.28906C5.07292 8.32552 5.64583 7.47656 6.375 6.74219C7.10938 6.00781 7.95573 5.43229 8.91406 5.01562C9.8776 4.59896 10.9036 4.39062 11.9922 4.39062C13.0807 4.39062 14.1068 4.59896 15.0703 5.01562C16.0339 5.43229 16.8828 6.00781 17.6172 6.74219C18.3516 7.47656 18.9271 8.32552 19.3438 9.28906C19.7604 10.2474 19.9688 11.2708 19.9688 12.3594C19.9688 13.4479 19.7604 14.474 19.3438 15.4375C18.9271 16.3958 18.3516 17.2422 17.6172 17.9766C16.8828 18.7109 16.0339 19.2865 15.0703 19.7031C14.112 20.1198 13.0885 20.3281 12 20.3281ZM12 19C12.9219 19 13.7839 18.8281 14.5859 18.4844C15.388 18.1406 16.0938 17.6667 16.7031 17.0625C17.3125 16.4531 17.7865 15.7474 18.125 14.9453C18.4688 14.1432 18.6406 13.2812 18.6406 12.3594C18.6406 11.4375 18.4688 10.5755 18.125 9.77344C17.7812 8.97135 17.3047 8.26562 16.6953 7.65625C16.0911 7.04688 15.3854 6.57292 14.5781 6.23438C13.776 5.89062 12.9141 5.71875 11.9922 5.71875C11.0703 5.71875 10.2083 5.89062 9.40625 6.23438C8.60417 6.57292 7.90104 7.04688 7.29688 7.65625C6.69271 8.26562 6.21875 8.97135 5.875 9.77344C5.53646 10.5755 5.36719 11.4375 5.36719 12.3594C5.36719 13.2812 5.53646 14.1432 5.875 14.9453C6.21875 15.7474 6.69271 16.4531 7.29688 17.0625C7.90625 17.6667 8.61198 18.1406 9.41406 18.4844C10.2161 18.8281 11.0781 19 12 19ZM10.6328 16.7266C10.4714 16.7266 10.3359 16.6745 10.2266 16.5703C10.1172 16.4661 10.0625 16.3359 10.0625 16.1797C10.0625 16.0234 10.1172 15.8932 10.2266 15.7891C10.3359 15.6849 10.4714 15.6328 10.6328 15.6328H11.6016V12.0469H10.7656C10.6042 12.0469 10.4688 11.9948 10.3594 11.8906C10.25 11.7865 10.1953 11.6562 10.1953 11.5C10.1953 11.3438 10.25 11.2135 10.3594 11.1094C10.4688 11.0052 10.6042 10.9531 10.7656 10.9531H12.2344C12.4323 10.9531 12.5833 11.0182 12.6875 11.1484C12.7917 11.2734 12.8438 11.4427 12.8438 11.6562V15.6328H13.8125C13.974 15.6328 14.1094 15.6849 14.2188 15.7891C14.3281 15.8932 14.3828 16.0234 14.3828 16.1797C14.3828 16.3359 14.3281 16.4661 14.2188 16.5703C14.1094 16.6745 13.974 16.7266 13.8125 16.7266H10.6328ZM11.9297 9.64844C11.6484 9.64844 11.4089 9.54948 11.2109 9.35156C11.013 9.15365 10.9141 8.91406 10.9141 8.63281C10.9141 8.34635 11.013 8.10417 11.2109 7.90625C11.4089 7.70833 11.6484 7.60938 11.9297 7.60938C12.2161 7.60938 12.4557 7.70833 12.6484 7.90625C12.8464 8.10417 12.9453 8.34635 12.9453 8.63281C12.9453 8.91406 12.8464 9.15365 12.6484 9.35156C12.4557 9.54948 12.2161 9.64844 11.9297 9.64844Z" fill="black"/>
</svg>
