<svg width="24" height="24" viewBox="0 0 24 24" fill="none" xmlns="http://www.w3.org/2000/svg">
    <path d="M4.67969 16.375C4.51823 16.375 4.38021 16.3177 4.26562 16.2031C4.15104 16.0833 4.09375 15.9401 4.09375 15.7734C4.09375 15.612 4.15104 15.474 4.26562 15.3594C4.38021 15.2448 4.51823 15.1875 4.67969 15.1875H19.3047C19.4661 15.1875 19.6042 15.2448 19.7188 15.3594C19.8385 15.474 19.8984 15.612 19.8984 15.7734C19.8984 15.9401 19.8385 16.0833 19.7188 16.2031C19.6042 16.3177 19.4661 16.375 19.3047 16.375H4.67969ZM4.67969 12.9609C4.51823 12.9609 4.38021 12.9036 4.26562 12.7891C4.15104 12.6745 4.09375 12.5365 4.09375 12.375C4.09375 12.2083 4.15104 12.0677 4.26562 11.9531C4.38021 11.8333 4.51823 11.7734 4.67969 11.7734H19.3047C19.4661 11.7734 19.6042 11.8333 19.7188 11.9531C19.8385 12.0677 19.8984 12.2083 19.8984 12.375C19.8984 12.5365 19.8385 12.6745 19.7188 12.7891C19.6042 12.9036 19.4661 12.9609 19.3047 12.9609H4.67969ZM4.67969 9.55469C4.51823 9.55469 4.38021 9.4974 4.26562 9.38281C4.15104 9.26823 4.09375 9.13021 4.09375 8.96875C4.09375 8.80208 4.15104 8.66146 4.26562 8.54688C4.38021 8.43229 4.51823 8.375 4.67969 8.375H19.3047C19.4661 8.375 19.6042 8.43229 19.7188 8.54688C19.8385 8.66146 19.8984 8.80208 19.8984 8.96875C19.8984 9.13021 19.8385 9.26823 19.7188 9.38281C19.6042 9.4974 19.4661 9.55469 19.3047 9.55469H4.67969Z" fill="black"/>
</svg>
