<svg width="24" height="24" viewBox="0 0 24 24" fill="none" xmlns="http://www.w3.org/2000/svg">
    <path d="M9.6875 17.8516C9.54167 17.8516 9.42448 17.8099 9.33594 17.7266C9.2474 17.6432 9.20052 17.5312 9.19531 17.3906L8.96094 9.03906C8.95573 8.90365 8.9974 8.79427 9.08594 8.71094C9.17969 8.6224 9.29948 8.57812 9.44531 8.57812C9.58594 8.57812 9.70052 8.61979 9.78906 8.70312C9.88281 8.78646 9.92969 8.89583 9.92969 9.03125L10.1719 17.3906C10.1719 17.526 10.1276 17.638 10.0391 17.7266C9.95052 17.8099 9.83333 17.8516 9.6875 17.8516ZM12 17.8516C11.8542 17.8516 11.7344 17.8099 11.6406 17.7266C11.5469 17.638 11.5 17.526 11.5 17.3906V9.03906C11.5 8.90365 11.5469 8.79427 11.6406 8.71094C11.7344 8.6224 11.8542 8.57812 12 8.57812C12.151 8.57812 12.2734 8.6224 12.3672 8.71094C12.4609 8.79427 12.5078 8.90365 12.5078 9.03906V17.3906C12.5078 17.526 12.4609 17.638 12.3672 17.7266C12.2734 17.8099 12.151 17.8516 12 17.8516ZM14.3203 17.8516C14.1693 17.8516 14.0495 17.8099 13.9609 17.7266C13.8724 17.638 13.8307 17.526 13.8359 17.3906L14.0703 9.03906C14.0755 8.89844 14.1224 8.78646 14.2109 8.70312C14.2995 8.61979 14.4141 8.57812 14.5547 8.57812C14.7057 8.57812 14.8255 8.6224 14.9141 8.71094C15.0026 8.79427 15.0443 8.90365 15.0391 9.03906L14.8047 17.3906C14.7995 17.5312 14.7526 17.6432 14.6641 17.7266C14.5755 17.8099 14.4609 17.8516 14.3203 17.8516ZM8.57031 6.53906V4.78906C8.57031 4.22656 8.74219 3.78385 9.08594 3.46094C9.4349 3.13281 9.90885 2.96875 10.5078 2.96875H13.4766C14.0755 2.96875 14.5469 3.13281 14.8906 3.46094C15.2396 3.78385 15.4141 4.22656 15.4141 4.78906V6.53906H14.1719V4.86719C14.1719 4.64844 14.099 4.47135 13.9531 4.33594C13.8125 4.20052 13.625 4.13281 13.3906 4.13281H10.5938C10.3594 4.13281 10.1693 4.20052 10.0234 4.33594C9.88281 4.47135 9.8125 4.64844 9.8125 4.86719V6.53906H8.57031ZM5.02344 7.16406C4.86719 7.16406 4.72917 7.10677 4.60938 6.99219C4.49479 6.8724 4.4375 6.73177 4.4375 6.57031C4.4375 6.41406 4.49479 6.27865 4.60938 6.16406C4.72917 6.04427 4.86719 5.98438 5.02344 5.98438H18.9844C19.1406 5.98438 19.276 6.04167 19.3906 6.15625C19.5052 6.27083 19.5625 6.40885 19.5625 6.57031C19.5625 6.73177 19.5052 6.8724 19.3906 6.99219C19.2812 7.10677 19.1458 7.16406 18.9844 7.16406H5.02344ZM8.42188 20.3672C7.85938 20.3672 7.40365 20.2005 7.05469 19.8672C6.71094 19.5391 6.52604 19.0938 6.5 18.5312L5.94531 7.01562H7.17188L7.72656 18.3906C7.73698 18.6198 7.81771 18.8099 7.96875 18.9609C8.11979 19.112 8.30729 19.1875 8.53125 19.1875H15.4609C15.6901 19.1875 15.8802 19.112 16.0312 18.9609C16.1823 18.8151 16.263 18.625 16.2734 18.3906L16.7969 7.01562H18.0547L17.5078 18.5234C17.4818 19.0859 17.2943 19.5339 16.9453 19.8672C16.5964 20.2005 16.1432 20.3672 15.5859 20.3672H8.42188Z" fill="black"/>
</svg>
