<svg width="24" height="24" viewBox="0 0 24 24" fill="none" xmlns="http://www.w3.org/2000/svg">
    <path d="M7.51562 20.6016C6.69792 20.6016 6.08333 20.3984 5.67188 19.9922C5.26562 19.5911 5.0625 18.987 5.0625 18.1797V10.3828C5.0625 9.57552 5.26562 8.97135 5.67188 8.57031C6.08333 8.16406 6.69792 7.96094 7.51562 7.96094H9.86719V9.21875H7.53125C7.14062 9.21875 6.84115 9.32292 6.63281 9.53125C6.42448 9.73958 6.32031 10.0469 6.32031 10.4531V18.1094C6.32031 18.5156 6.42448 18.8229 6.63281 19.0312C6.84115 19.2396 7.14062 19.3438 7.53125 19.3438H16.4531C16.8385 19.3438 17.138 19.2396 17.3516 19.0312C17.5651 18.8229 17.6719 18.5156 17.6719 18.1094V10.4531C17.6719 10.0469 17.5651 9.73958 17.3516 9.53125C17.138 9.32292 16.8385 9.21875 16.4531 9.21875H14.125V7.96094H16.4766C17.2943 7.96094 17.9062 8.16406 18.3125 8.57031C18.724 8.97656 18.9297 9.58073 18.9297 10.3828V18.1797C18.9297 18.9818 18.724 19.5859 18.3125 19.9922C17.9062 20.3984 17.2943 20.6016 16.4766 20.6016H7.51562ZM11.9922 14.4844C11.8255 14.4844 11.6797 14.4245 11.5547 14.3047C11.4349 14.1849 11.375 14.0417 11.375 13.875V5.85156L11.4219 4.67969L10.8906 5.23438L9.71094 6.5C9.60156 6.625 9.45833 6.6875 9.28125 6.6875C9.11458 6.6875 8.97917 6.63542 8.875 6.53125C8.77083 6.42708 8.71875 6.29427 8.71875 6.13281C8.71875 5.98698 8.77865 5.85156 8.89844 5.72656L11.5391 3.17969C11.6224 3.10156 11.6979 3.04688 11.7656 3.01562C11.8385 2.98438 11.9141 2.96875 11.9922 2.96875C12.0755 2.96875 12.151 2.98438 12.2188 3.01562C12.2917 3.04688 12.3672 3.10156 12.4453 3.17969L15.0859 5.72656C15.2109 5.85156 15.2734 5.98698 15.2734 6.13281C15.2734 6.29427 15.2188 6.42708 15.1094 6.53125C15 6.63542 14.8646 6.6875 14.7031 6.6875C14.5312 6.6875 14.3906 6.625 14.2812 6.5L13.0938 5.23438L12.5703 4.67969L12.6172 5.85156V13.875C12.6172 14.0417 12.5547 14.1849 12.4297 14.3047C12.3099 14.4245 12.1641 14.4844 11.9922 14.4844Z" fill="black"/>
</svg>
