<svg width="24" height="24" viewBox="0 0 24 24" fill="none" xmlns="http://www.w3.org/2000/svg">
    <path d="M14.5625 17.2266L3.94531 21.6641C3.65365 21.7839 3.3776 21.8151 3.11719 21.7578C2.85677 21.7005 2.63802 21.5781 2.46094 21.3906C2.28385 21.2083 2.16927 20.9844 2.11719 20.7188C2.0651 20.4583 2.10417 20.1849 2.23438 19.8984L6.90625 9.53906C7.08854 9.13281 7.35417 8.8724 7.70312 8.75781C8.05208 8.63802 8.44792 8.63021 8.89062 8.73438C9.33854 8.83854 9.80208 9.01823 10.2812 9.27344C10.7656 9.52865 11.2344 9.82812 11.6875 10.1719C12.1406 10.5104 12.5469 10.8594 12.9062 11.2188C13.2604 11.5781 13.6094 11.987 13.9531 12.4453C14.2969 12.9036 14.5938 13.375 14.8438 13.8594C15.099 14.3438 15.276 14.8099 15.375 15.2578C15.4792 15.7057 15.4714 16.1042 15.3516 16.4531C15.237 16.7969 14.974 17.0547 14.5625 17.2266ZM10.0781 14.0391C10.7031 14.6693 11.2995 15.1719 11.8672 15.5469C12.4401 15.9167 12.9375 16.1562 13.3594 16.2656C13.7812 16.3698 14.0807 16.3333 14.2578 16.1562C14.4297 15.9896 14.4609 15.6953 14.3516 15.2734C14.2474 14.8516 14.0078 14.3542 13.6328 13.7812C13.263 13.2083 12.763 12.612 12.1328 11.9922C11.5078 11.3672 10.9089 10.8672 10.3359 10.4922C9.76823 10.1172 9.27344 9.875 8.85156 9.76562C8.4349 9.65625 8.14062 9.6901 7.96875 9.86719C7.79167 10.0391 7.75521 10.3359 7.85938 10.7578C7.96875 11.1797 8.20833 11.6771 8.57812 12.25C8.95312 12.8229 9.45312 13.4193 10.0781 14.0391ZM9.11719 4.28125C8.8724 4.28125 8.66667 4.19792 8.5 4.03125C8.33854 3.86458 8.25781 3.66146 8.25781 3.42188C8.25781 3.1875 8.33854 2.98698 8.5 2.82031C8.66667 2.65365 8.8724 2.57031 9.11719 2.57031C9.35156 2.57031 9.55208 2.65365 9.71875 2.82031C9.89062 2.98698 9.97656 3.1875 9.97656 3.42188C9.97656 3.66146 9.89062 3.86458 9.71875 4.03125C9.55208 4.19792 9.35156 4.28125 9.11719 4.28125ZM10.1484 5.74219C10.3255 6.6849 10.4141 7.625 10.4141 8.5625C10.4141 9.49479 10.3229 10.4375 10.1406 11.3906C10.1146 11.5312 10.0521 11.6536 9.95312 11.7578C9.85938 11.862 9.73958 11.9141 9.59375 11.9141C9.45312 11.9089 9.32292 11.8542 9.20312 11.75C9.08333 11.6458 9.04167 11.5182 9.07812 11.3672C9.25521 10.4297 9.34375 9.49219 9.34375 8.55469C9.34375 7.61719 9.25521 6.6901 9.07812 5.77344C9.04688 5.61719 9.08854 5.48698 9.20312 5.38281C9.32292 5.27344 9.45573 5.21615 9.60156 5.21094C9.7526 5.21094 9.875 5.26562 9.96875 5.375C10.0625 5.47917 10.1224 5.60156 10.1484 5.74219ZM13.9453 5.63281C13.6745 5.63281 13.4271 5.56771 13.2031 5.4375C12.9844 5.30208 12.8073 5.125 12.6719 4.90625C12.5417 4.68229 12.4766 4.4349 12.4766 4.16406C12.4766 3.7526 12.6198 3.40625 12.9062 3.125C13.1927 2.83854 13.5391 2.69531 13.9453 2.69531C14.3568 2.69531 14.7031 2.83854 14.9844 3.125C15.2708 3.40625 15.4141 3.7526 15.4141 4.16406C15.4141 4.4349 15.349 4.68229 15.2188 4.90625C15.0885 5.125 14.9115 5.30208 14.6875 5.4375C14.4688 5.56771 14.2214 5.63281 13.9453 5.63281ZM12.4609 8.09375C12.2734 8.09375 12.1094 8.02604 11.9688 7.89062C11.8333 7.75521 11.7656 7.59115 11.7656 7.39844C11.7656 7.21094 11.8333 7.04948 11.9688 6.91406C12.1094 6.77865 12.2734 6.71094 12.4609 6.71094C12.6536 6.71094 12.8151 6.77865 12.9453 6.91406C13.0807 7.04948 13.1484 7.21094 13.1484 7.39844C13.1484 7.59115 13.0807 7.75521 12.9453 7.89062C12.8151 8.02604 12.6536 8.09375 12.4609 8.09375ZM20.3203 4.72656C20.1276 4.72656 19.9635 4.66146 19.8281 4.53125C19.6979 4.39583 19.6328 4.23177 19.6328 4.03906C19.6328 3.84635 19.6979 3.68229 19.8281 3.54688C19.9635 3.41146 20.1276 3.34375 20.3203 3.34375C20.5078 3.34375 20.6667 3.41146 20.7969 3.54688C20.9323 3.68229 21 3.84635 21 4.03906C21 4.23177 20.9323 4.39583 20.7969 4.53125C20.6667 4.66146 20.5078 4.72656 20.3203 4.72656ZM18.0625 5.23438C18.1719 5.13021 18.3021 5.07812 18.4531 5.07812C18.6042 5.07812 18.7318 5.13021 18.8359 5.23438C18.9401 5.33854 18.9922 5.46615 18.9922 5.61719C18.9922 5.76823 18.9401 5.89844 18.8359 6.00781L17.375 7.46094C17.2708 7.57031 17.1432 7.625 16.9922 7.625C16.8411 7.61979 16.7109 7.5651 16.6016 7.46094C16.5026 7.35677 16.4505 7.22917 16.4453 7.07812C16.4453 6.92708 16.4974 6.79948 16.6016 6.69531L18.0625 5.23438ZM15.1641 8.14062C15.2682 8.04688 15.3958 7.9974 15.5469 7.99219C15.6979 7.98698 15.8255 8.03646 15.9297 8.14062C16.0339 8.25 16.0833 8.38021 16.0781 8.53125C16.0781 8.67708 16.0286 8.80208 15.9297 8.90625L11.9531 12.8906C11.849 12.9948 11.7214 13.0469 11.5703 13.0469C11.4193 13.0469 11.2891 12.9948 11.1797 12.8906C11.0755 12.7865 11.0234 12.6589 11.0234 12.5078C11.0234 12.3516 11.0755 12.2214 11.1797 12.1172L15.1641 8.14062ZM21.0312 11.7344C20.7865 11.7344 20.5807 11.651 20.4141 11.4844C20.2526 11.3177 20.1719 11.112 20.1719 10.8672C20.1719 10.6328 20.2526 10.4323 20.4141 10.2656C20.5807 10.099 20.7865 10.0156 21.0312 10.0156C21.2708 10.0156 21.474 10.099 21.6406 10.2656C21.8073 10.4323 21.8906 10.6328 21.8906 10.8672C21.8906 11.112 21.8073 11.3177 21.6406 11.4844C21.474 11.651 21.2708 11.7344 21.0312 11.7344ZM17.6719 12.0547C17.3281 12.0547 17.0365 11.9375 16.7969 11.7031C16.5625 11.4635 16.4453 11.1693 16.4453 10.8203C16.4453 10.4766 16.5625 10.1849 16.7969 9.94531C17.0365 9.70052 17.3281 9.57812 17.6719 9.57812C18.0208 9.57812 18.3151 9.70052 18.5547 9.94531C18.7995 10.1849 18.9219 10.4766 18.9219 10.8203C18.9219 11.1693 18.7995 11.4635 18.5547 11.7031C18.3151 11.9375 18.0208 12.0547 17.6719 12.0547ZM20.7344 15.7344C20.4948 15.7344 20.2917 15.651 20.125 15.4844C19.9583 15.3177 19.875 15.1146 19.875 14.875C19.875 14.6406 19.9583 14.4401 20.125 14.2734C20.2917 14.1016 20.4948 14.0156 20.7344 14.0156C20.974 14.0156 21.1771 14.1016 21.3438 14.2734C21.5104 14.4401 21.5938 14.6406 21.5938 14.875C21.5938 15.1146 21.5104 15.3177 21.3438 15.4844C21.1771 15.651 20.974 15.7344 20.7344 15.7344ZM18.3516 13.9219C18.4922 13.9479 18.6146 14.0078 18.7188 14.1016C18.8229 14.1953 18.875 14.3177 18.875 14.4688C18.875 14.6146 18.8203 14.7474 18.7109 14.8672C18.6016 14.9818 18.4714 15.0234 18.3203 14.9922C17.3984 14.8151 16.4688 14.7292 15.5312 14.7344C14.5938 14.7344 13.6589 14.8229 12.7266 15C12.5703 15.0312 12.4401 14.987 12.3359 14.8672C12.2318 14.7474 12.1797 14.6146 12.1797 14.4688C12.1745 14.3229 12.224 14.2031 12.3281 14.1094C12.4323 14.0156 12.5547 13.9531 12.6953 13.9219C13.6536 13.7448 14.599 13.6562 15.5312 13.6562C16.4688 13.6562 17.4089 13.7448 18.3516 13.9219Z" fill="black"/>
</svg>
