<svg width="24" height="24" viewBox="0 0 24 24" fill="none" xmlns="http://www.w3.org/2000/svg">
    <g clip-path="url(#clip0_24289_63167)">
        <path d="M11.8984 15.5156C10.8984 15.3438 10.2734 14.9922 9.78125 14.5C7.88281 12.6094 7.89844 9.95312 9.77344 8.07812L12.4375 5.40625C14.3125 3.53125 16.9688 3.51562 18.8672 5.41406C20.7578 7.3125 20.7422 9.96094 18.875 11.8359L16.5781 14.125C16.6562 13.6172 16.6094 13.0391 16.3906 12.5391L17.9219 11.0078C19.2734 9.65625 19.2891 7.72656 17.9219 6.35938C16.5547 4.99219 14.6328 5 13.2656 6.35938L10.7188 8.90625C9.36719 10.2578 9.35938 12.1953 10.7266 13.5625C11.2344 14.0703 11.9062 14.3828 12.9375 14.4609L11.8984 15.5156ZM12.0938 9.07812C13.0938 9.25 13.7188 9.60156 14.2109 10.0938C16.1094 11.9844 16.0938 14.6406 14.2188 16.5156L11.5469 19.1953C9.67969 21.0625 7.02344 21.0781 5.125 19.1797C3.23438 17.2891 3.25 14.6328 5.11719 12.7578L7.41406 10.4688C7.32812 10.9766 7.38281 11.5625 7.60156 12.0547L6.07031 13.5859C4.71094 14.9453 4.70312 16.8672 6.07031 18.2422C7.4375 19.6016 9.35938 19.5938 10.7188 18.2344L13.2734 15.6875C14.625 14.3359 14.6328 12.3984 13.2656 11.0312C12.7578 10.5234 12.0859 10.2188 11.0547 10.1328L12.0938 9.07812Z" fill="black"/>
    </g>
    <defs>
        <clipPath id="clip0_24289_63167">
            <rect width="24" height="24" rx="12" fill="white"/>
        </clipPath>
    </defs>
</svg>
