<svg width="24" height="24" viewBox="0 0 24 24" fill="none" xmlns="http://www.w3.org/2000/svg">
    <path d="M18.3193 18.5801H6.2168C3.21094 18.5801 0.952148 16.4092 0.952148 13.8252C0.952148 11.6807 2.19141 9.90527 4.17773 9.58887C4.22168 7.12793 6.57715 5.48438 8.73926 6.11719C9.79395 4.5791 11.4902 3.30469 13.8721 3.30469C17.4668 3.30469 20.2881 6.13477 20.2705 10.0547C21.9844 10.7754 23.0479 12.375 23.0479 14.2207C23.0479 16.6377 20.9736 18.5801 18.3193 18.5801ZM18.3193 17.165C20.1914 17.165 21.6328 15.8555 21.6328 14.2207C21.6328 12.6299 20.6045 11.4609 19.0049 11.1094C18.8994 11.083 18.8555 11.0215 18.8643 10.9072C18.8994 10.4941 18.9258 10.0195 18.8994 9.61523C18.75 7.00488 16.7549 4.71973 13.8721 4.71973C11.5957 4.71973 10.2861 5.96777 9.43359 7.48828C9.38086 7.58496 9.31934 7.61133 9.21387 7.57617C7.41211 6.9873 5.46094 7.78711 5.46094 10.4941C5.46094 10.6084 5.41699 10.6699 5.29395 10.6699C3.43066 10.6699 2.36719 12.0674 2.36719 13.8252C2.36719 15.6182 4.00195 17.165 6.2168 17.165H18.3193ZM15.9814 7.4707C16.9307 8.42871 16.9395 9.79102 15.9814 10.7578L14.4785 12.2607C14.6631 11.7773 14.6807 11.3203 14.5664 10.8984L15.3135 10.1689C15.9111 9.57129 15.9023 8.73633 15.3135 8.12988C14.7246 7.53223 13.8896 7.53223 13.2832 8.13867L11.5869 9.84375C10.9717 10.4502 10.9805 11.2676 11.5781 11.8652C11.8594 12.1465 12.2109 12.2959 12.5449 12.2871C12.4658 12.4189 12.4395 12.4629 12.29 12.6387L11.8242 13.0957C11.5869 13.0166 11.2266 12.8496 10.9189 12.5332C9.96094 11.5664 9.95215 10.1953 10.9102 9.2373L12.6855 7.46191C13.6523 6.50391 15.0234 6.50391 15.9814 7.4707ZM8.47559 14.9678C7.51758 14.001 7.51758 12.6299 8.47559 11.6719L9.97852 10.1777C9.79395 10.6611 9.77637 11.1182 9.89062 11.5225L9.14355 12.2695C8.5459 12.8672 8.5459 13.7021 9.14355 14.3086C9.73242 14.8975 10.5762 14.8975 11.1738 14.2998L12.8701 12.5947C13.4854 11.9883 13.4766 11.1621 12.8789 10.5732C12.5801 10.2656 12.2197 10.125 11.8506 10.1865C11.9736 10.0107 12.0879 9.8877 12.1758 9.79102L12.6328 9.34277C12.8965 9.42188 13.2393 9.58887 13.5469 9.90527C14.5049 10.8721 14.5137 12.2344 13.5469 13.1924L11.7715 14.9678C10.7959 15.9258 9.44238 15.9258 8.47559 14.9678Z" fill="black"/>
</svg>
