<svg width="16" height="15" viewBox="0 0 16 15" fill="none" xmlns="http://www.w3.org/2000/svg">
    <path d="M2.29688 6.72656C1.80208 6.72656 1.42969 6.60156 1.17969 6.35156C0.929688 6.09635 0.804688 5.71094 0.804688 5.19531V1.70312C0.804688 1.1875 0.929688 0.804688 1.17969 0.554688C1.42969 0.304688 1.80208 0.179688 2.29688 0.179688H5.85938C6.35417 0.179688 6.72656 0.304688 6.97656 0.554688C7.22656 0.804688 7.35156 1.1875 7.35156 1.70312V5.19531C7.35156 5.71094 7.22656 6.09635 6.97656 6.35156C6.72656 6.60156 6.35417 6.72656 5.85938 6.72656H2.29688ZM10.1406 6.72656C9.64062 6.72656 9.26562 6.60156 9.01562 6.35156C8.76562 6.09635 8.64062 5.71094 8.64062 5.19531V1.70312C8.64062 1.1875 8.76562 0.804688 9.01562 0.554688C9.26562 0.304688 9.64062 0.179688 10.1406 0.179688H13.6953C14.1901 0.179688 14.5625 0.304688 14.8125 0.554688C15.0625 0.804688 15.1875 1.1875 15.1875 1.70312V5.19531C15.1875 5.71094 15.0625 6.09635 14.8125 6.35156C14.5625 6.60156 14.1901 6.72656 13.6953 6.72656H10.1406ZM2.29688 14.5625C1.80208 14.5625 1.42969 14.4375 1.17969 14.1875C0.929688 13.9375 0.804688 13.5547 0.804688 13.0391V9.53906C0.804688 9.02865 0.929688 8.64844 1.17969 8.39844C1.42969 8.14323 1.80208 8.01562 2.29688 8.01562H5.85938C6.35417 8.01562 6.72656 8.14323 6.97656 8.39844C7.22656 8.64844 7.35156 9.02865 7.35156 9.53906V13.0391C7.35156 13.5547 7.22656 13.9375 6.97656 14.1875C6.72656 14.4375 6.35417 14.5625 5.85938 14.5625H2.29688ZM10.1406 14.5625C9.64062 14.5625 9.26562 14.4375 9.01562 14.1875C8.76562 13.9375 8.64062 13.5547 8.64062 13.0391V9.53906C8.64062 9.02865 8.76562 8.64844 9.01562 8.39844C9.26562 8.14323 9.64062 8.01562 10.1406 8.01562H13.6953C14.1901 8.01562 14.5625 8.14323 14.8125 8.39844C15.0625 8.64844 15.1875 9.02865 15.1875 9.53906V13.0391C15.1875 13.5547 15.0625 13.9375 14.8125 14.1875C14.5625 14.4375 14.1901 14.5625 13.6953 14.5625H10.1406Z" fill="black"/>
</svg>
