<svg width="24" height="24" viewBox="0 0 24 24" fill="none" xmlns="http://www.w3.org/2000/svg">
    <path d="M12 20.3281C10.9115 20.3281 9.88542 20.1198 8.92188 19.7031C7.96354 19.2865 7.11719 18.7109 6.38281 17.9766C5.64844 17.2422 5.07292 16.3958 4.65625 15.4375C4.23958 14.474 4.03125 13.4479 4.03125 12.3594C4.03125 11.2708 4.23958 10.2474 4.65625 9.28906C5.07292 8.32552 5.64583 7.47656 6.375 6.74219C7.10938 6.00781 7.95573 5.43229 8.91406 5.01562C9.8776 4.59896 10.9036 4.39062 11.9922 4.39062C13.0807 4.39062 14.1068 4.59896 15.0703 5.01562C16.0339 5.43229 16.8828 6.00781 17.6172 6.74219C18.3516 7.47656 18.9271 8.32552 19.3438 9.28906C19.7604 10.2474 19.9688 11.2708 19.9688 12.3594C19.9688 13.4479 19.7604 14.474 19.3438 15.4375C18.9271 16.3958 18.3516 17.2422 17.6172 17.9766C16.8828 18.7109 16.0339 19.2865 15.0703 19.7031C14.112 20.1198 13.0885 20.3281 12 20.3281ZM9.375 15.6406C9.5625 15.6406 9.72135 15.5781 9.85156 15.4531L12.0078 13.2812L14.1719 15.4531C14.2917 15.5781 14.4453 15.6406 14.6328 15.6406C14.8151 15.6406 14.9688 15.5781 15.0938 15.4531C15.2188 15.3229 15.2812 15.1693 15.2812 14.9922C15.2812 14.7995 15.2188 14.6458 15.0938 14.5312L12.9219 12.3672L15.1016 10.1953C15.2266 10.0651 15.2891 9.91146 15.2891 9.73438C15.2891 9.55729 15.2266 9.40625 15.1016 9.28125C14.9766 9.15625 14.8255 9.09375 14.6484 9.09375C14.4766 9.09375 14.3281 9.15625 14.2031 9.28125L12.0078 11.4609L9.82812 9.28906C9.69792 9.16927 9.54688 9.10938 9.375 9.10938C9.19792 9.10938 9.04688 9.17188 8.92188 9.29688C8.79688 9.41667 8.73438 9.56771 8.73438 9.75C8.73438 9.92188 8.79688 10.0729 8.92188 10.2031L11.0938 12.3672L8.92188 14.5391C8.79688 14.6641 8.73438 14.8151 8.73438 14.9922C8.73438 15.1693 8.79688 15.3229 8.92188 15.4531C9.04688 15.5781 9.19792 15.6406 9.375 15.6406Z" fill="black"/>
</svg>
