<svg width="24" height="24" viewBox="0 0 24 24" fill="none" xmlns="http://www.w3.org/2000/svg">
    <g clip-path="url(#clip0_24289_63047)">
        <path fill-rule="evenodd" clip-rule="evenodd" d="M10.0363 8.28613H11.7148L10.822 11.1433H13.4291L12.9827 12.5718H10.3756L9.39342 15.7147H7.71484L10.0363 8.28613ZM14.6077 8.28613H16.2863L13.9648 15.7147H12.2863L14.6077 8.28613Z" fill="black"/>
        <path fill-rule="evenodd" clip-rule="evenodd" d="M12 19.2C15.9765 19.2 19.2 15.9765 19.2 12C19.2 8.02355 15.9765 4.8 12 4.8C8.02355 4.8 4.8 8.02355 4.8 12C4.8 15.9765 8.02355 19.2 12 19.2ZM12 20C16.4183 20 20 16.4183 20 12C20 7.58172 16.4183 4 12 4C7.58172 4 4 7.58172 4 12C4 16.4183 7.58172 20 12 20Z" fill="black"/>
    </g>
    <defs>
        <clipPath id="clip0_24289_63047">
            <rect width="16" height="16" fill="white" transform="translate(4 4)"/>
        </clipPath>
    </defs>
</svg>
